<?xml version="1.0" encoding="UTF-8" standalone="no"?>
<svg width="32" height="32" viewBox="0 0 32 32" fill="none" xmlns="http://www.w3.org/2000/svg">
  <!-- 배경 - 세련된 색상 -->
  <rect width="32" height="32" rx="6" fill="#4A6FA5"/>

  <!-- 까투리 실루엣 - 미니멀한 디자인 -->
  <path d="M7 10C7 7.23858 9.23858 5 12 5H20C22.7614 5 25 7.23858 25 10V18C25 20.7614 22.7614 23 20 23H12C9.23858 23 7 20.7614 7 18V10Z" fill="#B88A6F"/>

  <!-- 깃털 패턴 - 세련된 표현 -->
  <path d="M12 9C13.6569 9 15 10.3431 15 12C15 13.6569 13.6569 15 12 15C10.3431 15 9 13.6569 9 12C9 10.3431 10.3431 9 12 9Z" fill="#8B5A2B" fill-opacity="0.7"/>
  <path d="M20 9C21.6569 9 23 10.3431 23 12C23 13.6569 21.6569 15 20 15C18.3431 15 17 13.6569 17 12C17 10.3431 18.3431 9 20 9Z" fill="#8B5A2B" fill-opacity="0.7"/>

  <!-- 눈 - 표현적인 디자인 -->
  <circle cx="12" cy="12" r="1.8" fill="#FFFFFF"/>
  <circle cx="12" cy="12" r="0.9" fill="#000000"/>
  <circle cx="20" cy="12" r="1.8" fill="#FFFFFF"/>
  <circle cx="20" cy="12" r="0.9" fill="#000000"/>

  <!-- 부리 - 특징적인 형태 -->
  <path d="M16 15L18 17L16 19L14 17L16 15Z" fill="#D2691E"/>

  <!-- 장식적 요소 - 현대적인 느낌 -->
  <path d="M7 18V22C7 24.7614 9.23858 27 12 27H20C22.7614 27 25 24.7614 25 22V18C25 20.7614 22.7614 23 20 23H12C9.23858 23 7 20.7614 7 18Z" fill="#3A5A8C"/>

  <!-- 깃털 하이라이트 - 세련된 디테일 -->
  <path d="M14 10.5C14.8284 10.5 15.5 11.1716 15.5 12C15.5 12.8284 14.8284 13.5 14 13.5C13.1716 13.5 12.5 12.8284 12.5 12C12.5 11.1716 13.1716 10.5 14 10.5Z" fill="#FFFFFF" fill-opacity="0.3"/>
  <path d="M18 10.5C18.8284 10.5 19.5 11.1716 19.5 12C19.5 12.8284 18.8284 13.5 18 13.5C17.1716 13.5 17 12.8284 17 12C17 11.1716 17.1716 10.5 18 10.5Z" fill="#FFFFFF" fill-opacity="0.3"/>
</svg>
